<svg width="38" height="45" viewBox="0 0 38 45" fill="none" xmlns="http://www.w3.org/2000/svg">
<g filter="url(#filter0_d_8_510)">
<path d="M4.54293 14.7306L6.37168 9.24436C6.42665 9.07917 6.54993 8.94528 6.70995 8.8767L10.977 7.04795C10.9792 7.04686 10.9814 7.04604 10.9836 7.04523C11.2114 6.95079 11.4734 7.00277 11.6479 7.17721L14.7434 10.2728L18.3775 1.28368C18.4701 1.05509 18.691 0.904865 18.9376 0.902684H18.9428C19.1874 0.902684 19.4084 1.0491 19.5039 1.27415L23.2047 9.99783L32.1213 1.08117C32.2958 0.906732 32.5578 0.854754 32.7856 0.948915C33.0134 1.04335 33.162 1.26568 33.162 1.51223V19.1902C33.162 19.3467 33.1018 19.4972 32.9938 19.6106L26.5289 26.3986L33.6496 35.8928C33.8096 36.1061 33.8123 36.3986 33.6564 36.615C33.5004 36.8313 33.222 36.9211 32.9692 36.8368L20.168 32.5697C20.0782 32.54 19.9965 32.4891 19.9293 32.4225L10.7855 23.2787C10.6712 23.1644 10.607 23.0093 10.6073 22.8476V14.4479L5.24049 15.5212C5.02741 15.5636 4.8078 15.4896 4.66411 15.3269C4.52015 15.1639 4.47408 14.9366 4.54293 14.7306ZM11.8266 21.3762L17.9747 15.2281L11.8266 9.08001V21.3762ZM20.8464 30.598L31.4183 19.4973L19.5248 16.0613L20.8464 30.598ZM19.9981 14.9292L31.9432 18.3799V2.98424L19.9981 14.9292ZM19.6019 30.3702L18.3476 16.5796L12.0792 22.8481L19.6019 30.3702Z" fill="white"/>
</g>
<defs>
<filter id="filter0_d_8_510" x="0.511475" y="0.902588" width="37.26" height="43.9655" filterUnits="userSpaceOnUse" color-interpolation-filters="sRGB">
<feFlood flood-opacity="0" result="BackgroundImageFix"/>
<feColorMatrix in="SourceAlpha" type="matrix" values="0 0 0 0 0 0 0 0 0 0 0 0 0 0 0 0 0 0 127 0" result="hardAlpha"/>
<feOffset dy="4"/>
<feGaussianBlur stdDeviation="2"/>
<feComposite in2="hardAlpha" operator="out"/>
<feColorMatrix type="matrix" values="0 0 0 0 0 0 0 0 0 0 0 0 0 0 0 0 0 0 0.25 0"/>
<feBlend mode="normal" in2="BackgroundImageFix" result="effect1_dropShadow_8_510"/>
<feBlend mode="normal" in="SourceGraphic" in2="effect1_dropShadow_8_510" result="shape"/>
</filter>
</defs>
</svg>
