<svg width="276" height="119" viewBox="0 0 276 119" fill="none" xmlns="http://www.w3.org/2000/svg">
<path d="M13.9131 57.583C15.211 57.583 16.1615 57.2175 16.7647 56.4863C17.3679 55.7551 17.6695 54.8868 17.6695 53.8814V51.9621C17.6695 50.7739 17.2857 49.9331 16.5179 49.4395C15.7502 48.9277 14.8819 48.6718 13.9131 48.6718H11.7744V57.583H13.9131ZM17.2857 39.0476C17.2857 37.9509 16.9841 37.1923 16.3808 36.7718C15.7776 36.3331 14.9093 36.1138 13.776 36.1138H11.7744V44.0379H13.9954C15.0556 44.0379 15.869 43.6266 16.4357 42.8041C17.0023 41.9632 17.2857 40.9396 17.2857 39.7331V39.0476ZM15.7776 63.204C14.3518 63.204 12.5056 63.1674 10.2389 63.0943C7.97227 63.0212 6.34539 62.9755 5.3583 62.9572H2.72605V30.8219H7.46958C8.62119 30.8219 9.93731 30.7853 11.418 30.7122C12.8986 30.6208 13.9679 30.5751 14.626 30.5751C16.7647 30.5751 18.5652 30.7487 20.0276 31.096C21.5082 31.4434 22.669 31.9643 23.5098 32.6589C24.3507 33.3536 24.9448 34.1579 25.2921 35.0718C25.6577 35.9858 25.8405 37.0734 25.8405 38.3347C25.8405 40.2724 25.3926 41.9358 24.4969 43.325C23.6012 44.7143 22.3034 45.5825 20.6034 45.9299C24.9174 46.3137 27.0743 48.8454 27.0743 53.525C27.0743 54.9325 26.8641 56.2121 26.4437 57.3637C26.0233 58.497 25.3744 59.5115 24.4969 60.4072C23.6378 61.2846 22.4679 61.9701 20.9873 62.4637C19.5066 62.9572 17.7701 63.204 15.7776 63.204ZM43.3462 59.3105C43.2365 59.5664 43.008 59.9045 42.6607 60.325C42.3317 60.7454 41.893 61.2115 41.3446 61.7233C40.7962 62.2169 40.1198 62.6373 39.3155 62.9846C38.5112 63.3502 37.6978 63.533 36.8752 63.533C34.2978 63.533 32.4516 62.7653 31.3365 61.2298C30.2398 59.6943 29.6914 57.1352 29.6914 53.5524V43.7912L28.7317 42.8041V39.6509H38.6849V55.2798C38.6666 56.1024 38.8037 56.7148 39.0962 57.1169C39.3887 57.5008 39.9188 57.6927 40.6865 57.6927C40.7962 57.6927 40.8967 57.6927 40.9881 57.6927C41.0795 57.6744 41.1709 57.6562 41.2623 57.6379C41.3537 57.6013 41.4268 57.5739 41.4817 57.5556C41.5548 57.5373 41.637 57.5099 41.7284 57.4734C41.8198 57.4185 41.893 57.3728 41.9478 57.3363C42.0026 57.2997 42.0757 57.254 42.1671 57.1992C42.2585 57.1261 42.3225 57.0712 42.3591 57.0347C42.4139 56.9981 42.487 56.9433 42.5784 56.8701C42.6881 56.7787 42.7704 56.7148 42.8252 56.6782V43.7912L41.3446 42.8041V39.6509H51.7913V62.9572H44.1962L43.3462 59.3105ZM55.5634 62.9572V45.217L53.9182 44.2024V41.2686L59.8134 39.6509H64.3924V62.9572H55.5634ZM59.5392 37.1283L55.0424 32.6041V31.6444L59.5392 27.1477H60.5811L65.2698 31.6444V32.6041L60.5811 37.1283H59.5392ZM67.8736 62.9572V31.946L66.2284 30.9589V28.409L75.03 27.038H76.8122V62.9572H67.8736ZM95.793 62.9572L94.7236 59.4201C94.5774 59.676 94.4037 59.932 94.2027 60.1879C94.0199 60.4438 93.7183 60.7728 93.2978 61.175C92.8774 61.5588 92.4296 61.897 91.9543 62.1895C91.479 62.4819 90.8849 62.7379 90.172 62.9572C89.4591 63.1766 88.7097 63.2862 87.9237 63.2862C84.9075 63.2862 82.6957 62.2535 81.2882 60.1879C79.8807 58.1223 79.1769 55.2524 79.1769 51.5782C79.1769 49.275 79.5059 47.2277 80.164 45.4363C80.8221 43.6266 81.8549 42.1734 83.2624 41.0767C84.6699 39.9799 86.3699 39.4315 88.3624 39.4315C89.5505 39.4315 90.6107 39.5595 91.543 39.8154C92.4753 40.0713 93.2796 40.382 93.9559 40.7476V32.4396L90.9398 31.4251V28.409L100.646 27.038H102.785V62.9572H95.793ZM91.9269 57.9121C92.2559 57.9121 92.5941 57.8572 92.9414 57.7476C93.2887 57.6196 93.6269 57.4459 93.9559 57.2266V43.4347C93.3892 43.3068 92.8683 43.2428 92.393 43.2428C89.9618 43.2611 88.7371 45.1347 88.7188 48.8637V52.7024C88.7188 54.4207 89.0204 55.7185 89.6237 56.5959C90.2269 57.4734 90.9946 57.9121 91.9269 57.9121ZM106.492 62.9572V45.217L104.847 44.2024V41.2686L110.742 39.6509H115.321V62.9572H106.492ZM110.468 37.1283L105.972 32.6041V31.6444L110.468 27.1477H111.51L116.199 31.6444V32.6041L111.51 37.1283H110.468ZM127.961 62.9572H119.104V45.217L117.459 44.2024V41.2686L123.354 39.6509H128.016V43.1879L128.345 42.7766C128.564 42.4842 128.884 42.1369 129.304 41.7347C129.743 41.3326 130.227 40.9396 130.757 40.5557C131.288 40.1535 131.918 39.8154 132.649 39.5412C133.399 39.2487 134.13 39.1025 134.843 39.1025C137.347 39.1025 139.111 39.7879 140.135 41.1589C141.177 42.5299 141.698 44.824 141.698 48.0411C141.698 48.1508 141.698 48.3153 141.698 48.5347C141.679 48.754 141.67 48.9277 141.67 49.0557V62.9572H132.622V48.2605C132.677 46.5422 131.946 45.6831 130.428 45.6831C130.319 45.6831 130.209 45.6922 130.099 45.7105C130.008 45.7288 129.917 45.7471 129.825 45.7653C129.752 45.7836 129.661 45.8202 129.551 45.875C129.46 45.9116 129.377 45.9481 129.304 45.9847C129.231 46.003 129.149 46.0487 129.057 46.1218C128.966 46.1766 128.893 46.2223 128.838 46.2589C128.783 46.2955 128.701 46.3594 128.591 46.4508C128.5 46.5239 128.427 46.5788 128.372 46.6153C128.335 46.6519 128.262 46.7159 128.153 46.8073C128.061 46.8804 127.997 46.9352 127.961 46.9718V62.9572ZM155.688 72.6362C154.262 72.6362 152.653 72.3072 150.862 71.6491C149.07 71.0093 147.91 70.397 147.38 69.812L149.107 66.0556C149.564 66.4029 150.304 66.7228 151.328 67.0153C152.352 67.3077 153.229 67.454 153.96 67.454C154.691 67.454 155.322 67.3534 155.852 67.1524C156.4 66.9696 156.821 66.7319 157.113 66.4395C157.406 66.1653 157.643 65.818 157.826 65.3975C158.009 64.9954 158.119 64.6298 158.155 64.3008C158.21 63.9717 158.247 63.6061 158.265 63.204V60.8734C156.711 62.4819 154.819 63.2862 152.589 63.2862C149.573 63.2862 147.361 62.2535 145.954 60.1879C144.546 58.1223 143.842 55.2524 143.842 51.5782C143.842 49.86 144.034 48.2788 144.418 46.8347C144.802 45.3723 145.36 44.0928 146.091 42.996C146.84 41.8809 147.809 41.0127 148.997 40.3912C150.185 39.7514 151.529 39.4315 153.028 39.4315C155.295 39.4315 157.26 39.9342 158.923 40.9396L159.389 39.6509H163.584L168.739 39.8976V42.475L167.094 43.6266V61.9427C167.094 69.0717 163.292 72.6362 155.688 72.6362ZM156.565 58.2959C157.113 58.2959 157.68 58.1406 158.265 57.8298V43.3799C157.826 43.2885 157.424 43.2428 157.059 43.2428C154.627 43.2611 153.403 45.1347 153.384 48.8637V53.1137C153.384 54.2836 153.54 55.289 153.85 56.1298C154.399 57.5739 155.304 58.2959 156.565 58.2959ZM190.916 50.5363C190.916 53.5707 191.144 55.682 191.601 56.8701C192.076 58.0583 192.899 58.6524 194.069 58.6524C194.928 58.6524 195.577 58.4422 196.016 58.0217C196.454 57.583 196.783 56.6965 197.003 55.3621C197.24 54.0094 197.359 51.9895 197.359 49.3024V42.6944C197.359 40.0804 197.103 38.1337 196.592 36.8541C196.08 35.5745 195.239 34.9347 194.069 34.9347C192.899 34.9347 192.076 35.5654 191.601 36.8267C191.144 38.0697 190.916 40.3455 190.916 43.6541V50.5363ZM193.493 63.533C191.976 63.533 190.605 63.3959 189.38 63.1217C188.174 62.8475 187.132 62.4637 186.254 61.9701C185.377 61.4766 184.609 60.8459 183.951 60.0782C183.311 59.3105 182.79 58.4879 182.388 57.6105C182.004 56.733 181.694 55.7094 181.456 54.5395C181.218 53.3513 181.054 52.1723 180.963 51.0024C180.871 49.8143 180.825 48.4799 180.825 46.9992C180.825 44.8057 180.935 42.8955 181.154 41.2686C181.392 39.6417 181.822 38.1154 182.443 36.6896C183.065 35.2455 183.887 34.0756 184.911 33.1799C185.953 32.2842 187.287 31.5805 188.914 31.0686C190.559 30.5568 192.497 30.3009 194.727 30.3009C196.262 30.3009 197.643 30.4471 198.867 30.7396C200.092 31.0138 201.143 31.3977 202.021 31.8912C202.898 32.3848 203.657 33.0245 204.296 33.8106C204.954 34.5966 205.475 35.4374 205.859 36.3331C206.261 37.2105 206.581 38.2433 206.819 39.4315C207.057 40.6197 207.221 41.7987 207.312 42.9686C207.404 44.1385 207.45 45.4637 207.45 46.9444C207.45 49.1379 207.331 51.0481 207.093 52.675C206.855 54.3019 206.426 55.8282 205.804 57.254C205.183 58.6615 204.351 59.8131 203.309 60.7088C202.267 61.5863 200.924 62.2809 199.279 62.7927C197.652 63.2862 195.723 63.533 193.493 63.533ZM219.456 62.9572H210.6V45.217L208.955 44.2024V41.2686L214.85 39.6509H219.511V43.1879L219.84 42.7766C220.06 42.4842 220.379 42.1369 220.8 41.7347C221.239 41.3326 221.723 40.9396 222.253 40.5557C222.783 40.1535 223.414 39.8154 224.145 39.5412C224.895 39.2487 225.626 39.1025 226.339 39.1025C228.843 39.1025 230.607 39.7879 231.631 41.1589C232.672 42.5299 233.193 44.824 233.193 48.0411C233.193 48.1508 233.193 48.3153 233.193 48.5347C233.175 48.754 233.166 48.9277 233.166 49.0557V62.9572H224.118V48.2605C224.172 46.5422 223.441 45.6831 221.924 45.6831C221.814 45.6831 221.705 45.6922 221.595 45.7105C221.504 45.7288 221.412 45.7471 221.321 45.7653C221.248 45.7836 221.156 45.8202 221.047 45.875C220.955 45.9116 220.873 45.9481 220.8 45.9847C220.727 46.003 220.645 46.0487 220.553 46.1218C220.462 46.1766 220.389 46.2223 220.334 46.2589C220.279 46.2955 220.197 46.3594 220.087 46.4508C219.996 46.5239 219.923 46.5788 219.868 46.6153C219.831 46.6519 219.758 46.7159 219.648 46.8073C219.557 46.8804 219.493 46.9352 219.456 46.9718V62.9572ZM2.80831 108.957V76.8219H12.1583V108.957H2.80831ZM25.0582 108.957H16.2018V91.217L14.5566 90.2024V87.2686L20.4517 85.6509H25.113V89.1879C25.2044 89.06 25.3324 88.8955 25.4969 88.6944C25.6797 88.475 26.0087 88.1369 26.484 87.6799C26.9592 87.2229 27.4436 86.8207 27.9372 86.4734C28.449 86.1261 29.0614 85.8154 29.7743 85.5412C30.5055 85.2487 31.2275 85.1025 31.9404 85.1025C33.7684 85.1025 35.1667 85.4498 36.1356 86.1444C37.1044 86.839 37.7898 87.9723 38.192 89.5444C38.8135 88.4659 39.764 87.4605 41.0436 86.5283C42.3414 85.5777 43.7672 85.1025 45.321 85.1025C47.0393 85.1025 48.3737 85.4041 49.3242 86.0073C50.293 86.5922 50.9968 87.5976 51.4355 89.0234C51.8742 90.4492 52.0936 92.46 52.0936 95.0557V108.957H43.1823V94.2605C43.1823 93.4562 42.9904 92.8256 42.6065 92.3686C42.2226 91.9116 41.6377 91.6831 40.8517 91.6831C40.3216 91.6831 39.5995 92.1218 38.6855 92.9992C38.7404 93.8766 38.7678 94.8272 38.7678 95.8508V108.957H29.7194V94.2605C29.7743 92.5422 29.0431 91.6831 27.5259 91.6831C27.4162 91.6831 27.3066 91.6922 27.1969 91.7105C27.1055 91.7288 27.0141 91.7471 26.9227 91.7653C26.8496 91.7836 26.7582 91.8202 26.6485 91.875C26.5571 91.9116 26.4748 91.9481 26.4017 91.9847C26.3286 92.003 26.2463 92.0487 26.1549 92.1218C26.0635 92.1766 25.9904 92.2223 25.9356 92.2589C25.8808 92.2955 25.7985 92.3594 25.6888 92.4508C25.5974 92.5239 25.5243 92.5788 25.4695 92.6153C25.4329 92.6519 25.3598 92.7159 25.2501 92.8073C25.1587 92.8804 25.0947 92.9352 25.0582 92.9718V108.957ZM67.4085 106.517L67.1343 106.819C66.9515 107.038 66.6682 107.294 66.2843 107.586C65.9187 107.879 65.4891 108.171 64.9956 108.464C64.5203 108.756 63.9354 109.003 63.2408 109.204C62.5461 109.423 61.8332 109.533 61.1021 109.533C56.1666 109.533 53.6989 107.093 53.6989 102.212C53.6989 101.262 53.8725 100.393 54.2198 99.6072C54.5671 98.803 55.015 98.1266 55.5634 97.5782C56.1118 97.0298 56.7698 96.5454 57.5376 96.125C58.3053 95.6863 59.073 95.3481 59.8408 95.1105C60.6268 94.8546 61.4494 94.6444 62.3085 94.4799C63.1676 94.3153 63.9354 94.2057 64.6117 94.1508C65.2881 94.096 65.937 94.0686 66.5585 94.0686V93.575C66.5585 92.46 66.2569 91.6739 65.6537 91.217C65.0687 90.76 64.1182 90.5315 62.8021 90.5315C61.6687 90.5315 60.4897 90.6686 59.265 90.9428C58.0402 91.1987 57.0806 91.5094 56.386 91.875L54.6311 88.146C55.8741 87.3417 57.4919 86.6379 59.4843 86.0347C61.4768 85.4132 63.5058 85.1025 65.5714 85.1025C67.3994 85.1025 68.9074 85.2853 70.0956 85.6509C71.2837 85.9982 72.2434 86.6014 72.9746 87.4605C73.7241 88.3014 74.2542 89.3799 74.5649 90.696C74.8757 91.9938 75.031 93.6481 75.031 95.6589V106.819L75.7988 108.957H68.2859L67.4085 106.517ZM65.2424 104.707C65.48 104.707 65.6994 104.662 65.9004 104.57C66.1198 104.46 66.2843 104.36 66.394 104.269C66.5037 104.159 66.5585 104.104 66.5585 104.104V97.5234C65.4434 97.5234 64.5569 97.8341 63.8988 98.4556C63.2408 99.0589 62.9117 100 62.9117 101.28C62.9117 103.565 63.6886 104.707 65.2424 104.707ZM89.0941 118.636C87.6683 118.636 86.0597 118.307 84.2683 117.649C82.4769 117.009 81.3162 116.397 80.7861 115.812L82.5135 112.056C82.9705 112.403 83.7108 112.723 84.7345 113.015C85.7581 113.308 86.6355 113.454 87.3667 113.454C88.0979 113.454 88.7285 113.353 89.2586 113.152C89.807 112.97 90.2274 112.732 90.5199 112.439C90.8124 112.165 91.05 111.818 91.2328 111.398C91.4156 110.995 91.5253 110.63 91.5618 110.301C91.6167 109.972 91.6532 109.606 91.6715 109.204V106.873C90.1178 108.482 88.2258 109.286 85.9957 109.286C82.9796 109.286 80.7678 108.253 79.3603 106.188C77.9528 104.122 77.249 101.252 77.249 97.5782C77.249 95.86 77.4409 94.2788 77.8248 92.8347C78.2087 91.3723 78.7662 90.0928 79.4974 88.996C80.2468 87.8809 81.2157 87.0127 82.4038 86.3912C83.592 85.7514 84.9355 85.4315 86.4344 85.4315C88.7011 85.4315 90.6662 85.9342 92.3296 86.9396L92.7957 85.6509H96.9909L102.146 85.8976V88.475L100.501 89.6266V107.943C100.501 115.072 96.6984 118.636 89.0941 118.636ZM89.9715 104.296C90.5199 104.296 91.0866 104.141 91.6715 103.83V89.3799C91.2328 89.2885 90.8307 89.2428 90.4651 89.2428C88.0339 89.2611 86.8092 91.1347 86.7909 94.8637V99.1137C86.7909 100.284 86.9463 101.289 87.257 102.13C87.8054 103.574 88.7102 104.296 89.9715 104.296ZM104.324 108.957V91.217L102.678 90.2024V87.2686L108.574 85.6509H113.153V108.957H104.324ZM108.299 83.1283L103.803 78.6041V77.6444L108.299 73.1477H109.341L114.03 77.6444V78.6041L109.341 83.1283H108.299ZM125.792 108.957H116.935V91.217L115.29 90.2024V87.2686L121.185 85.6509H125.847V89.1879L126.176 88.7766C126.395 88.4842 126.715 88.1369 127.135 87.7347C127.574 87.3326 128.058 86.9396 128.589 86.5557C129.119 86.1535 129.749 85.8154 130.48 85.5412C131.23 85.2487 131.961 85.1025 132.674 85.1025C135.178 85.1025 136.942 85.7879 137.966 87.1589C139.008 88.5299 139.529 90.824 139.529 94.0411C139.529 94.1508 139.529 94.3153 139.529 94.5347C139.511 94.754 139.501 94.9277 139.501 95.0557V108.957H130.453V94.2605C130.508 92.5422 129.777 91.6831 128.26 91.6831C128.15 91.6831 128.04 91.6922 127.93 91.7105C127.839 91.7288 127.748 91.7471 127.656 91.7653C127.583 91.7836 127.492 91.8202 127.382 91.875C127.291 91.9116 127.208 91.9481 127.135 91.9847C127.062 92.003 126.98 92.0487 126.889 92.1218C126.797 92.1766 126.724 92.2223 126.669 92.2589C126.614 92.2955 126.532 92.3594 126.422 92.4508C126.331 92.5239 126.258 92.5788 126.203 92.6153C126.167 92.6519 126.093 92.7159 125.984 92.8073C125.892 92.8804 125.828 92.9352 125.792 92.9718V108.957ZM154.807 106.517L154.533 106.819C154.35 107.038 154.067 107.294 153.683 107.586C153.318 107.879 152.888 108.171 152.394 108.464C151.919 108.756 151.334 109.003 150.64 109.204C149.945 109.423 149.232 109.533 148.501 109.533C143.565 109.533 141.098 107.093 141.098 102.212C141.098 101.262 141.271 100.393 141.619 99.6072C141.966 98.803 142.414 98.1266 142.962 97.5782C143.511 97.0298 144.169 96.5454 144.936 96.125C145.704 95.6863 146.472 95.3481 147.24 95.1105C148.026 94.8546 148.848 94.6444 149.707 94.4799C150.567 94.3153 151.334 94.2057 152.011 94.1508C152.687 94.096 153.336 94.0686 153.957 94.0686V93.575C153.957 92.46 153.656 91.6739 153.053 91.217C152.468 90.76 151.517 90.5315 150.201 90.5315C149.068 90.5315 147.889 90.6686 146.664 90.9428C145.439 91.1987 144.479 91.5094 143.785 91.875L142.03 88.146C143.273 87.3417 144.891 86.6379 146.883 86.0347C148.876 85.4132 150.905 85.1025 152.97 85.1025C154.798 85.1025 156.306 85.2853 157.494 85.6509C158.683 85.9982 159.642 86.6014 160.373 87.4605C161.123 88.3014 161.653 89.3799 161.964 90.696C162.275 91.9938 162.43 93.6481 162.43 95.6589V106.819L163.198 108.957H155.685L154.807 106.517ZM152.641 104.707C152.879 104.707 153.098 104.662 153.299 104.57C153.519 104.46 153.683 104.36 153.793 104.269C153.903 104.159 153.957 104.104 153.957 104.104V97.5234C152.842 97.5234 151.956 97.8341 151.298 98.4556C150.64 99.0589 150.311 100 150.311 101.28C150.311 103.565 151.087 104.707 152.641 104.707ZM172.353 109.533C169.885 109.533 168.158 108.793 167.17 107.312C166.202 105.831 165.717 103.327 165.717 99.7992V90.4766H163.825V86.6654L167.061 85.6509L169.858 79.2622H174.683V85.6509H179.18V90.4766H174.601V100.677C174.601 102.139 174.811 103.108 175.232 103.583C175.652 104.058 176.301 104.296 177.178 104.296C177.562 104.296 177.91 104.25 178.22 104.159C178.531 104.067 178.787 103.939 178.988 103.775V107.504C178.714 107.778 178.357 108.052 177.919 108.327C177.48 108.582 176.749 108.848 175.725 109.122C174.72 109.396 173.596 109.533 172.353 109.533ZM181.601 108.957V91.217L179.956 90.2024V87.2686L185.851 85.6509H190.43V108.957H181.601ZM185.577 83.1283L181.08 78.6041V77.6444L185.577 73.1477H186.619L191.307 77.6444V78.6041L186.619 83.1283H185.577ZM205.235 106.243C206.04 106.243 206.652 105.914 207.072 105.256C207.511 104.579 207.73 103.656 207.73 102.486V93.8218C207.73 90.2573 206.89 88.475 205.208 88.475C204.422 88.475 203.809 88.7949 203.371 89.4347C202.932 90.0745 202.713 90.9793 202.713 92.1492V101.06C202.713 104.515 203.554 106.243 205.235 106.243ZM205.016 109.533C200.83 109.533 197.768 108.582 195.83 106.681C193.893 104.78 192.924 101.746 192.924 97.5782C192.924 93.4471 193.902 90.3395 195.858 88.2557C197.814 86.1535 200.994 85.1025 205.4 85.1025C209.695 85.1025 212.794 86.1078 214.695 88.1186C216.614 90.1111 217.574 93.1363 217.574 97.1944C217.574 101.399 216.559 104.506 214.53 106.517C212.52 108.528 209.348 109.533 205.016 109.533ZM229.417 108.957H220.561V91.217L218.916 90.2024V87.2686L224.811 85.6509H229.472V89.1879L229.801 88.7766C230.02 88.4842 230.34 88.1369 230.761 87.7347C231.2 87.3326 231.684 86.9396 232.214 86.5557C232.744 86.1535 233.375 85.8154 234.106 85.5412C234.855 85.2487 235.587 85.1025 236.3 85.1025C238.804 85.1025 240.568 85.7879 241.591 87.1589C242.633 88.5299 243.154 90.824 243.154 94.0411C243.154 94.1508 243.154 94.3153 243.154 94.5347C243.136 94.754 243.127 94.9277 243.127 95.0557V108.957H234.079V94.2605C234.133 92.5422 233.402 91.6831 231.885 91.6831C231.775 91.6831 231.666 91.6922 231.556 91.7105C231.465 91.7288 231.373 91.7471 231.282 91.7653C231.209 91.7836 231.117 91.8202 231.008 91.875C230.916 91.9116 230.834 91.9481 230.761 91.9847C230.688 92.003 230.605 92.0487 230.514 92.1218C230.423 92.1766 230.35 92.2223 230.295 92.2589C230.24 92.2955 230.158 92.3594 230.048 92.4508C229.957 92.5239 229.883 92.5788 229.829 92.6153C229.792 92.6519 229.719 92.7159 229.609 92.8073C229.518 92.8804 229.454 92.9352 229.417 92.9718V108.957ZM249.384 109.478L244.888 104.954V103.994L249.384 99.4976H250.426L255.115 103.994V104.954L250.426 109.478H249.384Z" fill="black"/>
<path d="M229.118 13.3763L230.887 8.06926C230.94 7.90947 231.06 7.77995 231.215 7.71362L235.342 5.94461C235.344 5.94355 235.346 5.94276 235.349 5.94197C235.569 5.85062 235.822 5.90091 235.991 6.06964L238.986 9.06409L242.501 0.368641C242.59 0.147518 242.804 0.00220275 243.043 9.34168e-05H243.048C243.284 9.34168e-05 243.498 0.141722 243.591 0.359422L247.17 8.79811L255.796 0.172749C255.964 0.00400883 256.218 -0.0462715 256.438 0.0448141C256.659 0.136163 256.802 0.351234 256.802 0.589731V17.6902C256.802 17.8415 256.744 17.9871 256.64 18.0969L250.386 24.6631L257.274 33.8471C257.429 34.0535 257.431 34.3365 257.281 34.5457C257.13 34.755 256.861 34.8419 256.616 34.7603L244.233 30.6326C244.146 30.6039 244.067 30.5547 244.002 30.4902L235.157 21.6451C235.046 21.5346 234.984 21.3845 234.985 21.2281V13.1028L229.793 14.141C229.587 14.1821 229.374 14.1105 229.236 13.9531C229.096 13.7954 229.052 13.5756 229.118 13.3763ZM236.164 19.8048L242.111 13.8575L236.164 7.91028V19.8048ZM244.889 28.7253L255.116 17.9873L243.611 14.6635L244.889 28.7253ZM244.069 13.5684L255.623 16.9064V2.01364L244.069 13.5684ZM243.685 28.505L242.472 15.1649L236.408 21.2286L243.685 28.505Z" fill="black"/>
</svg>
